<mxfile host="app.diagrams.net" agent="Mozilla/5.0 (Macintosh; Intel Mac OS X 10_15_7) AppleWebKit/537.36 (KHTML, like Gecko) Chrome/129.0.0.0 Safari/537.36" version="24.8.3">
  <diagram name="Página-1" id="6HihooBxa2DejQiqPC_1">
    <mxGraphModel dx="954" dy="1750" grid="1" gridSize="10" guides="1" tooltips="1" connect="1" arrows="1" fold="1" page="1" pageScale="1" pageWidth="827" pageHeight="1169" math="0" shadow="0">
      <root>
        <mxCell id="0" />
        <mxCell id="1" parent="0" />
        <mxCell id="I6Dfd6pA3f_QeKw_8c1P-8" value="" style="rounded=1;whiteSpace=wrap;html=1;absoluteArcSize=1;arcSize=14;strokeWidth=2;dashed=1;" vertex="1" parent="1">
          <mxGeometry x="200" y="-10" width="350" height="350" as="geometry" />
        </mxCell>
        <mxCell id="I6Dfd6pA3f_QeKw_8c1P-2" style="rounded=0;orthogonalLoop=1;jettySize=auto;html=1;" edge="1" parent="1" source="I6Dfd6pA3f_QeKw_8c1P-1" target="I6Dfd6pA3f_QeKw_8c1P-3">
          <mxGeometry relative="1" as="geometry">
            <mxPoint x="260" y="200" as="targetPoint" />
          </mxGeometry>
        </mxCell>
        <mxCell id="I6Dfd6pA3f_QeKw_8c1P-5" value="" style="edgeStyle=orthogonalEdgeStyle;rounded=0;orthogonalLoop=1;jettySize=auto;html=1;" edge="1" parent="1" source="I6Dfd6pA3f_QeKw_8c1P-1" target="I6Dfd6pA3f_QeKw_8c1P-6">
          <mxGeometry relative="1" as="geometry">
            <mxPoint x="355" y="200" as="targetPoint" />
          </mxGeometry>
        </mxCell>
        <mxCell id="I6Dfd6pA3f_QeKw_8c1P-1" value="Usuário" style="shape=umlActor;verticalLabelPosition=bottom;verticalAlign=top;html=1;" vertex="1" parent="1">
          <mxGeometry x="60" y="170" width="30" height="60" as="geometry" />
        </mxCell>
        <mxCell id="I6Dfd6pA3f_QeKw_8c1P-3" value="Registrar" style="ellipse;whiteSpace=wrap;html=1;" vertex="1" parent="1">
          <mxGeometry x="290" y="50" width="140" height="70" as="geometry" />
        </mxCell>
        <mxCell id="I6Dfd6pA3f_QeKw_8c1P-6" value="Efetuar Login" style="ellipse;whiteSpace=wrap;html=1;" vertex="1" parent="1">
          <mxGeometry x="290" y="165" width="140" height="70" as="geometry" />
        </mxCell>
        <mxCell id="I6Dfd6pA3f_QeKw_8c1P-9" value="Sistema" style="text;html=1;align=center;verticalAlign=middle;resizable=0;points=[];autosize=1;strokeColor=none;fillColor=none;" vertex="1" parent="1">
          <mxGeometry x="480" y="310" width="70" height="30" as="geometry" />
        </mxCell>
      </root>
    </mxGraphModel>
  </diagram>
</mxfile>
